<mxfile host="Electron" modified="2024-04-07T09:57:20.821Z" agent="Mozilla/5.0 (X11; Linux x86_64) AppleWebKit/537.36 (KHTML, like Gecko) draw.io/24.1.0 Chrome/120.0.6099.109 Electron/28.1.0 Safari/537.36" etag="1fbKFq554g5q3Lh20rLH" version="24.1.0" type="device">
  <diagram name="Page-1" id="I941_idhYl7eI7n1jK2k">
    <mxGraphModel dx="768" dy="514" grid="1" gridSize="10" guides="1" tooltips="1" connect="1" arrows="1" fold="1" page="1" pageScale="1" pageWidth="850" pageHeight="1100" math="0" shadow="0">
      <root>
        <mxCell id="0" />
        <mxCell id="1" parent="0" />
        <mxCell id="yXZx7xlckFOBpXGZv_K4-2" value="Command Name" style="rounded=0;whiteSpace=wrap;html=1;" vertex="1" parent="1">
          <mxGeometry x="160" y="240" width="200" height="40" as="geometry" />
        </mxCell>
        <mxCell id="yXZx7xlckFOBpXGZv_K4-3" value="Category" style="rounded=0;whiteSpace=wrap;html=1;" vertex="1" parent="1">
          <mxGeometry x="360" y="240" width="120" height="40" as="geometry" />
        </mxCell>
        <mxCell id="yXZx7xlckFOBpXGZv_K4-4" value="File-Hash&lt;div&gt;~/.pxec/cmd&lt;/div&gt;" style="rounded=0;whiteSpace=wrap;html=1;" vertex="1" parent="1">
          <mxGeometry x="480" y="240" width="160" height="40" as="geometry" />
        </mxCell>
        <mxCell id="yXZx7xlckFOBpXGZv_K4-5" value="update" style="text;html=1;align=left;verticalAlign=middle;whiteSpace=wrap;rounded=0;" vertex="1" parent="1">
          <mxGeometry x="160" y="280" width="200" height="30" as="geometry" />
        </mxCell>
        <mxCell id="yXZx7xlckFOBpXGZv_K4-7" value="system" style="text;html=1;align=left;verticalAlign=middle;whiteSpace=wrap;rounded=0;" vertex="1" parent="1">
          <mxGeometry x="360" y="280" width="120" height="30" as="geometry" />
        </mxCell>
        <mxCell id="yXZx7xlckFOBpXGZv_K4-8" value="8AF7DE3002CAB523" style="text;html=1;align=left;verticalAlign=middle;whiteSpace=wrap;rounded=0;" vertex="1" parent="1">
          <mxGeometry x="480" y="280" width="160" height="30" as="geometry" />
        </mxCell>
        <mxCell id="yXZx7xlckFOBpXGZv_K4-9" value="firefox" style="text;html=1;align=left;verticalAlign=middle;whiteSpace=wrap;rounded=0;" vertex="1" parent="1">
          <mxGeometry x="160" y="310" width="200" height="30" as="geometry" />
        </mxCell>
        <mxCell id="yXZx7xlckFOBpXGZv_K4-10" value="app" style="text;html=1;align=left;verticalAlign=middle;whiteSpace=wrap;rounded=0;" vertex="1" parent="1">
          <mxGeometry x="360" y="310" width="120" height="30" as="geometry" />
        </mxCell>
        <mxCell id="yXZx7xlckFOBpXGZv_K4-11" value="1985BFFA26E182341" style="text;html=1;align=left;verticalAlign=middle;whiteSpace=wrap;rounded=0;" vertex="1" parent="1">
          <mxGeometry x="480" y="310" width="160" height="30" as="geometry" />
        </mxCell>
        <mxCell id="yXZx7xlckFOBpXGZv_K4-12" value="Text" style="text;html=1;align=left;verticalAlign=middle;whiteSpace=wrap;rounded=0;" vertex="1" parent="1">
          <mxGeometry x="160" y="340" width="200" height="30" as="geometry" />
        </mxCell>
        <mxCell id="yXZx7xlckFOBpXGZv_K4-13" value="Text" style="text;html=1;align=left;verticalAlign=middle;whiteSpace=wrap;rounded=0;" vertex="1" parent="1">
          <mxGeometry x="360" y="340" width="120" height="30" as="geometry" />
        </mxCell>
        <mxCell id="yXZx7xlckFOBpXGZv_K4-14" value="Text" style="text;html=1;align=left;verticalAlign=middle;whiteSpace=wrap;rounded=0;" vertex="1" parent="1">
          <mxGeometry x="480" y="340" width="160" height="30" as="geometry" />
        </mxCell>
        <mxCell id="yXZx7xlckFOBpXGZv_K4-15" value="Text" style="text;html=1;align=left;verticalAlign=middle;whiteSpace=wrap;rounded=0;" vertex="1" parent="1">
          <mxGeometry x="160" y="370" width="200" height="30" as="geometry" />
        </mxCell>
        <mxCell id="yXZx7xlckFOBpXGZv_K4-16" value="Text" style="text;html=1;align=left;verticalAlign=middle;whiteSpace=wrap;rounded=0;" vertex="1" parent="1">
          <mxGeometry x="360" y="370" width="120" height="30" as="geometry" />
        </mxCell>
        <mxCell id="yXZx7xlckFOBpXGZv_K4-17" value="Text" style="text;html=1;align=left;verticalAlign=middle;whiteSpace=wrap;rounded=0;" vertex="1" parent="1">
          <mxGeometry x="480" y="370" width="160" height="30" as="geometry" />
        </mxCell>
        <mxCell id="yXZx7xlckFOBpXGZv_K4-18" value="Text" style="text;html=1;align=left;verticalAlign=middle;whiteSpace=wrap;rounded=0;" vertex="1" parent="1">
          <mxGeometry x="160" y="400" width="200" height="30" as="geometry" />
        </mxCell>
        <mxCell id="yXZx7xlckFOBpXGZv_K4-19" value="Text" style="text;html=1;align=left;verticalAlign=middle;whiteSpace=wrap;rounded=0;" vertex="1" parent="1">
          <mxGeometry x="360" y="400" width="120" height="30" as="geometry" />
        </mxCell>
        <mxCell id="yXZx7xlckFOBpXGZv_K4-20" value="Text" style="text;html=1;align=left;verticalAlign=middle;whiteSpace=wrap;rounded=0;" vertex="1" parent="1">
          <mxGeometry x="480" y="400" width="160" height="30" as="geometry" />
        </mxCell>
        <mxCell id="yXZx7xlckFOBpXGZv_K4-21" value="Text" style="text;html=1;align=left;verticalAlign=middle;whiteSpace=wrap;rounded=0;" vertex="1" parent="1">
          <mxGeometry x="160" y="430" width="200" height="30" as="geometry" />
        </mxCell>
        <mxCell id="yXZx7xlckFOBpXGZv_K4-22" value="Text" style="text;html=1;align=left;verticalAlign=middle;whiteSpace=wrap;rounded=0;" vertex="1" parent="1">
          <mxGeometry x="360" y="430" width="120" height="30" as="geometry" />
        </mxCell>
        <mxCell id="yXZx7xlckFOBpXGZv_K4-23" value="Text" style="text;html=1;align=left;verticalAlign=middle;whiteSpace=wrap;rounded=0;" vertex="1" parent="1">
          <mxGeometry x="480" y="430" width="160" height="30" as="geometry" />
        </mxCell>
        <mxCell id="yXZx7xlckFOBpXGZv_K4-24" value="Install commands from cmd package&lt;div&gt;&lt;span style=&quot;background-color: initial;&quot;&gt;pxc&lt;/span&gt;&lt;br&gt;&lt;/div&gt;&lt;div&gt;&lt;span style=&quot;background-color: initial;&quot;&gt;~/.pxec/pkg/test1&lt;/span&gt;&lt;/div&gt;&lt;div&gt;~/.pxec/pkg/test1/cmd (copy)&lt;span style=&quot;background-color: initial;&quot;&gt;&lt;br&gt;&lt;/span&gt;&lt;/div&gt;&lt;div&gt;~/.pxec/pkg/test1/map.pxc (append)&lt;br&gt;&lt;/div&gt;" style="text;html=1;align=left;verticalAlign=middle;whiteSpace=wrap;rounded=0;" vertex="1" parent="1">
          <mxGeometry x="160" y="80" width="200" height="120" as="geometry" />
        </mxCell>
        <mxCell id="yXZx7xlckFOBpXGZv_K4-25" value="built-in (reserved commands)&lt;div&gt;&lt;ul&gt;&lt;li&gt;ls,list&lt;/li&gt;&lt;li&gt;q,quit&lt;/li&gt;&lt;li&gt;a,add&lt;/li&gt;&lt;li&gt;e,edit&lt;/li&gt;&lt;li&gt;r,remove&lt;/li&gt;&lt;li&gt;i, info&lt;/li&gt;&lt;li&gt;cpkg&lt;/li&gt;&lt;ul&gt;&lt;li&gt;install &amp;lt;pkg&amp;gt;&lt;/li&gt;&lt;li&gt;remove &amp;lt;pkg&amp;gt;&lt;/li&gt;&lt;/ul&gt;&lt;/ul&gt;&lt;/div&gt;" style="rounded=0;whiteSpace=wrap;html=1;align=left;" vertex="1" parent="1">
          <mxGeometry x="440" y="30" width="200" height="200" as="geometry" />
        </mxCell>
      </root>
    </mxGraphModel>
  </diagram>
</mxfile>
